<svg width="800" height="134" viewBox="0 0 800 134" fill="none" xmlns="http://www.w3.org/2000/svg">
<rect width="800" height="134" fill="#231331"/>
<g clip-path="url(#clip0_2074_343)">
<path d="M343 67.2808H347.974C347.974 69.4705 349.796 70.5272 351.816 70.5272C353.672 70.5272 355.484 69.5577 355.484 67.8691C355.484 66.1152 353.409 65.6358 350.927 65.0585C347.491 64.2196 343.318 63.2283 343.318 58.3478C343.318 54.0119 346.535 51.5608 351.586 51.5608C356.823 51.5608 359.81 54.3388 359.81 58.8489H354.935C354.935 56.8988 353.31 55.9838 351.465 55.9838C349.862 55.9838 348.248 56.6592 348.248 58.1408C348.248 59.7313 350.224 60.2106 352.64 60.788C356.12 61.6595 360.479 62.738 360.479 67.8037C360.479 72.6951 356.56 75.0591 351.838 75.0591C346.601 75.0591 343 72.1396 343 67.2808Z" fill="white"/>
<path d="M371.327 75.1027C366.035 75.1027 361.983 71.061 361.983 65.8319C361.983 60.6028 366.002 56.6592 371.349 56.6592C375.905 56.6592 379.441 59.5243 380.297 63.8165H375.576C374.807 62.0953 373.226 61.093 371.327 61.093C368.747 61.093 366.803 63.152 366.803 65.8537C366.803 68.5554 368.78 70.6689 371.327 70.6689C373.248 70.6689 374.763 69.6121 375.576 67.7384H380.363C379.529 72.1287 375.927 75.1027 371.327 75.1027Z" fill="white"/>
<path d="M381.362 65.8865C381.362 60.592 385.425 56.6702 390.871 56.6702C396.294 56.6702 400.379 60.6029 400.379 65.8865C400.379 71.1483 396.294 75.1028 390.871 75.1028C385.425 75.1028 381.362 71.1483 381.362 65.8865ZM395.559 65.8865C395.559 63.0649 393.615 61.104 390.871 61.104C388.126 61.104 386.182 63.0649 386.182 65.8865C386.182 68.708 388.126 70.669 390.871 70.669C393.615 70.669 395.559 68.708 395.559 65.8865Z" fill="white"/>
<path d="M401.663 65.8865C401.663 60.592 405.725 56.6702 411.171 56.6702C416.595 56.6702 420.679 60.6029 420.679 65.8865C420.679 71.1483 416.595 75.1028 411.171 75.1028C405.715 75.1028 401.663 71.1483 401.663 65.8865ZM415.86 65.8865C415.86 63.0649 413.916 61.104 411.171 61.104C408.426 61.104 406.483 63.0649 406.483 65.8865C406.483 68.708 408.426 70.669 411.171 70.669C413.905 70.669 415.86 68.708 415.86 65.8865Z" fill="white"/>
<path d="M432.702 56.6702C438.005 56.6702 441.914 60.6029 441.914 65.8865C441.914 71.1701 437.994 75.1355 432.702 75.1355C430.879 75.1355 429.222 74.6017 427.86 73.6648V80.9093H423.106V57.1604H426.246L427.059 58.7509C428.563 57.4327 430.506 56.6702 432.702 56.6702ZM437.105 65.8865C437.105 63.1412 435.085 61.104 432.318 61.104C429.551 61.104 427.52 63.1521 427.52 65.8865C427.52 68.6209 429.551 70.669 432.318 70.669C435.074 70.669 437.105 68.6318 437.105 65.8865Z" fill="white"/>
<path d="M450.599 75.1027C446.185 75.1027 443.231 72.5971 443.209 68.8605H447.843C447.865 70.4183 449.062 71.1918 450.774 71.1918C452.092 71.1918 453.278 70.6035 453.278 69.4269C453.278 68.2286 451.751 67.8691 449.896 67.5641C447.085 67.0956 443.506 66.3548 443.506 62.2369C443.506 58.936 446.339 56.6592 450.588 56.6592C454.837 56.6592 457.625 59.0014 457.636 62.4875H453.124C453.102 61.1039 452.125 60.4176 450.467 60.4176C448.985 60.4176 448.117 61.093 448.117 62.0844C448.117 63.25 449.621 63.5224 451.444 63.8492C454.31 64.3612 457.977 64.9604 457.977 69.22C457.977 72.7932 455.034 75.1027 450.599 75.1027Z" fill="white"/>
<path d="M381.439 66.8778C381.143 64.5574 381.725 62.4876 382.932 60.6574C383.251 60.1671 384.294 58.7182 386.039 57.8685C388.872 56.485 392.891 56.9643 394.219 61.3655C395.087 65.6141 391.178 67.2591 388.675 66.2896C387.642 65.8865 386.885 64.9605 386.632 64.7971C384.502 63.3373 382.164 64.4267 381.439 66.8778Z" fill="white"/>
<path d="M401.729 66.8778C401.433 64.5574 402.015 62.4876 403.222 60.6574C403.541 60.1671 404.584 58.7182 406.33 57.8685C409.162 56.485 413.181 56.9643 414.509 61.3655C415.377 65.6141 411.468 67.2591 408.965 66.2896C407.933 65.8865 407.175 64.9605 406.922 64.7971C404.792 63.3373 402.465 64.4267 401.729 66.8778Z" fill="white"/>
<path d="M371.261 52.7919C368.022 52.7919 365.53 50.308 365.53 47.1052C365.53 43.9024 368 41.4839 371.272 41.4839C374.061 41.4839 376.235 43.2378 376.762 45.8742H373.863C373.391 44.8174 372.425 44.2074 371.261 44.2074C369.68 44.2074 368.494 45.4711 368.494 47.127C368.494 48.7829 369.702 50.0792 371.261 50.0792C372.436 50.0792 373.369 49.4256 373.863 48.2817H376.795C376.29 50.9726 374.083 52.7919 371.261 52.7919Z" fill="white"/>
<path d="M377.98 47.9766V41.7888H380.901V47.6389C380.901 49.1641 381.713 50.0683 383.064 50.0683C384.414 50.0683 385.205 49.1423 385.205 47.6389V41.7888H388.125V47.9657C388.125 50.8526 386.116 52.7809 383.064 52.7809C380.012 52.7918 377.98 50.8635 377.98 47.9766Z" fill="white"/>
<path d="M394.011 52.7919C391.299 52.7919 389.498 51.2558 389.476 48.9681H392.32C392.331 49.9158 393.066 50.3952 394.12 50.3952C394.933 50.3952 395.658 50.0357 395.658 49.3167C395.658 48.5868 394.724 48.3689 393.582 48.1728C391.859 47.8896 389.674 47.432 389.674 44.9046C389.674 42.8783 391.408 41.4839 394.011 41.4839C396.613 41.4839 398.326 42.9219 398.336 45.0571H395.57C395.559 44.2074 394.955 43.7825 393.945 43.7825C393.033 43.7825 392.506 44.1965 392.506 44.8066C392.506 45.5147 393.429 45.689 394.549 45.8851C396.305 46.201 398.556 46.5714 398.556 49.175C398.523 51.3756 396.733 52.7919 394.011 52.7919Z" fill="white"/>
<path d="M406.659 49.9158V52.4868H404.584C402.212 52.4868 400.752 51.0379 400.752 48.663V44.1202H398.798V43.4992L403.069 39H403.629V41.7889H406.604V44.1202H403.672V48.2926C403.672 49.3275 404.276 49.9158 405.33 49.9158H406.659Z" fill="white"/>
<path d="M407.34 47.1379C407.34 43.8915 409.832 41.4839 413.17 41.4839C416.496 41.4839 419 43.8915 419 47.1379C419 50.3625 416.496 52.7919 413.17 52.7919C409.832 52.7919 407.34 50.3734 407.34 47.1379ZM416.046 47.1379C416.046 45.4057 414.85 44.2074 413.17 44.2074C411.49 44.2074 410.293 45.4057 410.293 47.1379C410.293 48.87 411.49 50.0684 413.17 50.0684C414.85 50.0684 416.046 48.87 416.046 47.1379Z" fill="white"/>
<path d="M436.556 45.787V52.4977H433.635V46.2554C433.635 44.8283 433.075 44.0766 432.01 44.0766C430.704 44.0766 429.935 45.0244 429.935 46.7021V52.4868H427.103V46.2554C427.103 44.8283 426.554 44.0766 425.511 44.0766C424.193 44.0766 423.402 45.0244 423.402 46.7021V52.4868H420.482V41.7889H422.524L423.073 43.118C423.842 42.1593 425.016 41.5383 426.29 41.5383C427.662 41.5383 428.793 42.1702 429.419 43.2487C430.155 42.2138 431.385 41.5383 432.757 41.5383C434.997 41.5383 436.556 43.2705 436.556 45.787Z" fill="white"/>
<path d="M449.094 47.1051C449.094 47.3883 449.072 47.6716 449.039 47.9548H440.882C441.134 49.4146 442.1 50.2208 443.517 50.2208C444.527 50.2208 445.361 49.7414 445.8 48.9788H448.864C448.084 51.3102 446.02 52.8026 443.517 52.8026C440.333 52.8026 437.928 50.3515 437.928 47.1486C437.928 43.924 440.322 41.4947 443.517 41.4947C446.822 41.4838 449.094 44.0221 449.094 47.1051ZM440.959 45.9721H446.185C445.768 44.6648 444.823 43.9567 443.517 43.9567C442.21 43.9567 441.288 44.7084 440.959 45.9721Z" fill="white"/>
<path d="M457.044 41.7343V44.4687H455.781C454.134 44.4687 453.486 45.1877 453.486 46.9416V52.4976H450.566V41.7888H452.432L452.948 43.096C453.717 42.1483 454.694 41.7234 456.077 41.7234H457.044V41.7343Z" fill="white"/>
</g>
<defs>
<clipPath id="clip0_2074_343">
<rect width="114.977" height="41.8983" fill="white" transform="translate(343 39)"/>
</clipPath>
</defs>
</svg>
